<svg width="45" height="45" viewBox="0 0 45 45" fill="none" xmlns="http://www.w3.org/2000/svg">
<path d="M38.6719 12.6562H29.5312V3.51562C29.5312 3.32914 29.4572 3.1503 29.3253 3.01844C29.1934 2.88658 29.0146 2.8125 28.8281 2.8125H9.14062C8.95414 2.8125 8.7753 2.88658 8.64344 3.01844C8.51158 3.1503 8.4375 3.32914 8.4375 3.51562V23.2031C8.4375 23.3896 8.51158 23.5684 8.64344 23.7003C8.7753 23.8322 8.95414 23.9062 9.14062 23.9062H28.125V35.1562H9.14062C8.95414 35.1562 8.7753 35.2303 8.64344 35.3622C8.51158 35.4941 8.4375 35.6729 8.4375 35.8594V41.4844C8.4375 41.6709 8.51158 41.8497 8.64344 41.9816C8.7753 42.1134 8.95414 42.1875 9.14062 42.1875H38.6719C38.8584 42.1875 39.0372 42.1134 39.1691 41.9816C39.3009 41.8497 39.375 41.6709 39.375 41.4844V13.3594C39.375 13.1729 39.3009 12.9941 39.1691 12.8622C39.0372 12.7303 38.8584 12.6562 38.6719 12.6562Z" fill="#EEEEEE"/>
<path d="M28.8281 22.5H6.32812C5.9398 22.5 5.625 22.8148 5.625 23.2031V35.8594C5.625 36.2477 5.9398 36.5625 6.32812 36.5625H28.8281C29.2164 36.5625 29.5312 36.2477 29.5312 35.8594V23.2031C29.5312 22.8148 29.2164 22.5 28.8281 22.5Z" fill="#66BB6A"/>
<path d="M39.1711 12.8603L29.3274 3.01659C29.229 2.91743 29.1034 2.8498 28.9664 2.82233C28.8295 2.79486 28.6875 2.80879 28.5585 2.86234C28.4295 2.9159 28.3194 3.00665 28.2422 3.12303C28.165 3.23941 28.1242 3.37615 28.125 3.51581V13.3596C28.125 13.546 28.1991 13.7249 28.331 13.8567C28.4628 13.9886 28.6417 14.0627 28.8281 14.0627H38.6719C38.8115 14.0635 38.9483 14.0227 39.0647 13.9455C39.181 13.8683 39.2718 13.7582 39.3254 13.6292C39.3789 13.5002 39.3928 13.3582 39.3654 13.2213C39.3379 13.0843 39.2703 12.9587 39.1711 12.8603Z" fill="#E0E0E0"/>
<path d="M13.3596 30.4597H14.6252C14.5811 30.8468 14.4355 31.2155 14.2033 31.5284C13.9807 31.8182 13.6912 32.0498 13.3596 32.2034C13.0044 32.366 12.6182 32.4499 12.2276 32.4495C11.8638 32.4636 11.5012 32.3986 11.165 32.259C10.8287 32.1194 10.5268 31.9085 10.2799 31.6409C9.75869 31.0653 9.48578 30.3073 9.52053 29.5315C9.4894 28.7589 9.75621 28.0038 10.2658 27.4222C10.5013 27.154 10.7926 26.9407 11.1194 26.7973C11.4462 26.654 11.8005 26.584 12.1573 26.5925C12.516 26.5844 12.8723 26.6544 13.2013 26.7976C13.5303 26.9409 13.8242 27.154 14.0627 27.4222C14.3625 27.773 14.5552 28.2025 14.6182 28.6597H13.3596C13.2972 28.4116 13.1505 28.1929 12.9448 28.0409C12.7152 27.891 12.4453 27.815 12.1713 27.8229C11.9718 27.8174 11.7736 27.8576 11.592 27.9405C11.4104 28.0234 11.2502 28.1467 11.1237 28.3011C10.8504 28.6514 10.7108 29.0876 10.7299 29.5315C10.711 29.9777 10.856 30.4154 11.1377 30.762C11.2664 30.9152 11.4282 31.0373 11.6109 31.1189C11.7936 31.2005 11.9924 31.2395 12.1924 31.2331C12.4444 31.2478 12.6944 31.1803 12.9049 31.0408C13.1153 30.9014 13.2749 30.6975 13.3596 30.4597ZM15.7151 30.6706H16.8752C16.9244 30.9046 17.0589 31.112 17.2526 31.2524C17.4462 31.3927 17.6851 31.456 17.9229 31.43C18.1429 31.4412 18.3604 31.3794 18.5416 31.2542C18.6157 31.2005 18.6756 31.1295 18.716 31.0474C18.7564 30.9653 18.7762 30.8746 18.7737 30.7831C18.7803 30.6615 18.7457 30.5413 18.6755 30.4417C18.6053 30.3422 18.5037 30.2693 18.3869 30.2347C18.3354 30.2347 18.101 30.1644 17.6838 30.0237C17.2426 29.929 16.8198 29.7627 16.4323 29.5315C16.2452 29.3952 16.0947 29.2147 15.9941 29.0062C15.8935 28.7977 15.846 28.5675 15.8557 28.3362C15.8461 28.1017 15.8884 27.8679 15.9796 27.6516C16.0708 27.4352 16.2085 27.2417 16.383 27.0847C16.7743 26.7536 17.2775 26.585 17.7893 26.6136C18.294 26.5943 18.7902 26.7481 19.1955 27.0495C19.3728 27.179 19.5172 27.3482 19.6174 27.5436C19.7175 27.7389 19.7705 27.955 19.7721 28.1745H18.5979C18.5605 27.999 18.4573 27.8443 18.3096 27.7424C18.1619 27.6404 17.9808 27.5988 17.8033 27.6261C17.6108 27.6169 17.4206 27.6712 17.2619 27.7808C17.197 27.8283 17.1446 27.8909 17.1091 27.9632C17.0736 28.0354 17.0561 28.1151 17.058 28.1956C17.0528 28.2851 17.0741 28.3741 17.1191 28.4516C17.1641 28.5291 17.2309 28.5917 17.3112 28.6315C17.5934 28.7495 17.8883 28.8345 18.1901 28.8847C18.5805 28.95 18.9565 29.0833 19.301 29.2784C19.5251 29.4216 19.7078 29.6208 19.8311 29.8564C19.9545 30.092 20.0141 30.3557 20.0041 30.6214C20.0158 30.918 19.9484 31.2124 19.8087 31.4743C19.6691 31.7362 19.4623 31.9563 19.2096 32.112C18.8115 32.3439 18.355 32.4562 17.8948 32.4354C17.5459 32.4664 17.1948 32.4099 16.8732 32.2712C16.5515 32.1325 16.2695 31.9159 16.0526 31.6409C15.8591 31.3516 15.7429 31.0175 15.7151 30.6706ZM22.683 32.344L20.5737 26.719H21.8323L23.2033 30.5159L24.3776 26.719H25.608L23.7448 32.344H22.683Z" fill="white"/>
</svg>
