<svg width="110" height="110" viewBox="0 0 110 110" fill="none" xmlns="http://www.w3.org/2000/svg">
<path d="M59.5832 87.084V68.7507H73.3332L54.9998 45.834L36.6665 68.7507H50.4165V87.084H59.5832Z" fill="#312A8E"/>
<path d="M32.0832 87.0827H41.2498V77.916H32.0832C24.5023 77.916 18.3332 71.7468 18.3332 64.166C18.3332 57.731 23.8286 51.5343 30.5844 50.3473L33.2473 49.8798L34.1273 47.3223C37.3494 37.9218 45.3519 32.0827 54.9998 32.0827C67.6361 32.0827 77.9165 42.3631 77.9165 54.9993V59.5827H82.4998C87.5553 59.5827 91.6665 63.6939 91.6665 68.7493C91.6665 73.8048 87.5553 77.916 82.4998 77.916H68.7498V87.0827H82.4998C92.6107 87.0827 100.833 78.8602 100.833 68.7493C100.826 64.6409 99.4427 60.6533 96.9038 57.4232C94.365 54.1931 90.817 51.9068 86.8265 50.9293C84.8236 35.1535 71.3165 22.916 54.9998 22.916C42.3682 22.916 31.3957 30.2998 26.3861 41.9368C16.5411 44.8793 9.1665 54.1743 9.1665 64.166C9.1665 76.8023 19.4469 87.0827 32.0832 87.0827Z" fill="#312A8E"/>
</svg>
