<svg xmlns="http://www.w3.org/2000/svg" viewBox="0 0 64 64"><path fill="#2b65c1" d="M60.94,45.66A1,1,0,0,0,60,45H48a1,1,0,0,0-1,1V56a1,1,0,0,0,1.64.7681l12-10A1,1,0,0,0,60.94,45.66Z"/><path fill="#d6e0f0" d="M23,25V45H48a1.0029,1.0029,0,0,1,1,1V61a1.0029,1.0029,0,0,1-1,1H4a1.0029,1.0029,0,0,1-1-1V17a1.0327,1.0327,0,0,1,.29-.71l14-14A1.0327,1.0327,0,0,1,18,2H48a1.0029,1.0029,0,0,1,1,1V24a1.0029,1.0029,0,0,1-1,1Z"/><path d="M49,46v5H18a1.0029,1.0029,0,0,1-1-1V28a1.0029,1.0029,0,0,1,1-1h4V46Z" opacity=".15"/><rect width="40" height="24" x="21" y="23" fill="#4d80e4" rx="1"/><path fill="#8d93ab" d="M19,2V17a1.0029,1.0029,0,0,1-1,1H3V17a1.0327,1.0327,0,0,1,.29-.71l14-14A1.0327,1.0327,0,0,1,18,2Z"/><path fill="#f1f3f8" d="M34 29H28a1 1 0 0 0-1 1V40a1 1 0 0 0 2 0V37h5a1 1 0 0 0 1-1V30A1 1 0 0 0 34 29zm-1 6H29V31h4zM41 29H38a1 1 0 0 0-1 1V40a1 1 0 0 0 1 1h3a4.0039 4.0039 0 0 0 4-4V33A4.0039 4.0039 0 0 0 41 29zm2 8a2.0027 2.0027 0 0 1-2 2H39V31h2a2.0027 2.0027 0 0 1 2 2zM54 29H48a1 1 0 0 0-1 1V40a1 1 0 0 0 2 0V36h4a1 1 0 0 0 0-2H49V31h5a1 1 0 0 0 0-2z"/></svg>